<?xml version="1.0" encoding="utf-8"?>
<!-- Generator: Adobe Illustrator 24.3.0, SVG Export Plug-In . SVG Version: 6.00 Build 0)  -->
<svg version="1.1" id="Layer_1" xmlns="http://www.w3.org/2000/svg" xmlns:xlink="http://www.w3.org/1999/xlink" x="0px" y="0px"
	 viewBox="0 0 1363.89 315.28" style="enable-background:new 0 0 1363.89 315.28;" xml:space="preserve">
<style type="text/css">
	.st0{fill:none;stroke:#6E6F71;stroke-width:3.1136;stroke-miterlimit:10;}
	.st1{fill:#F48120;}
	.st2{fill:#4D4D4D;}
	.st3{fill:#919191;}
</style>
<g>
	<line class="st0" x1="669.85" y1="27.13" x2="669.85" y2="288.15"/>
	<path class="st1" d="M169.78,123.11c0,0-13.42,0.16-15.2,0.16c-11.95,0-15.62,15.83-15.57,18.27v0.48
		c0,27.47,0.06,73.58,0.06,73.58H122.3h-3.55h-5.33v-74.88c-0.12-7.84,1.44-14.13,4.7-18.87c3.26-4.73,7.23-8.32,11.92-10.76
		c4.69-2.43,11.5-5.13,21.94-5.13c3.33,0,26.65,0,26.65,0L169.78,123.11z M251.81,115.7h-6.7c-3.01,0-6.45,0.2-10.33,0.61
		c-3.88,0.41-7.57,1.49-11.08,3.25c-3.51,1.75-6.42,4.4-8.73,7.91c-2.32,3.52-3.41,8.38-3.28,14.61c0.12,6.22,1.57,11.23,4.32,15.02
		c2.75,3.78,6.39,6.66,10.89,8.62c4.51,1.96,9.67,3.18,15.49,3.65c1.77,0.15,3.58,0.24,5.41,0.3c1.33-0.05,2.67-0.11,4.02-0.2V115.7
		z M272.71,199.71c-3.25,4.73-7.23,8.32-11.92,10.75c-4.69,2.44-11.5,5.13-21.94,5.13c-3.33,0-26.65,0-26.65,0l-8.88-17.14
		c0,0,31.15-0.16,32.92-0.16c5.11,0,9.97-4.57,12.29-8.22c2.31-3.65,3.41-3.83,3.28-10.05v-0.48c-1.25,0.01-2.49,0-3.74-0.02
		c-1.43,0.03-2.85,0.03-4.28,0.02c-5.18,0.07-10.33-0.14-15.45-0.63c-7.76-0.75-14.74-2.54-20.93-5.38
		c-6.2-2.84-11.27-6.83-15.21-11.97c-3.94-5.14-5.98-11.84-6.1-20.09c-0.13-7.99,1.44-14.31,4.7-18.97
		c3.25-4.67,7.23-8.22,11.92-10.65c4.7-2.43,9.67-4.03,14.93-4.77c5.26-0.75,9.83-1.12,13.71-1.12h3.55h5.33h28.3h3.55h5.33v74.88
		C277.52,188.68,275.96,194.97,272.71,199.71z M450.79,152.14c-1.35-0.09-2.68-0.15-4.01-0.19c-1.82,0.06-3.63,0.15-5.39,0.3
		c-5.81,0.48-10.96,1.69-15.46,3.66c-4.5,1.96-8.12,4.84-10.87,8.63c-2.75,3.79-4.18,8.8-4.31,15.03
		c-0.13,6.23,0.97,11.11,3.28,14.63c2.31,3.52,5.21,6.16,8.71,7.92c3.5,1.76,7.18,2.84,11.06,3.25c3.87,0.4,7.31,0.61,10.3,0.61
		h6.69V152.14z M471.01,215.73h-3.54h-28.24h-5.32h-3.54c-3.87,0-8.43-0.37-13.68-1.12c-5.25-0.74-10.21-2.33-14.9-4.77
		c-4.68-2.44-8.65-5.99-11.9-10.67c-3.25-4.67-4.81-11-4.68-18.99c0.13-8.26,2.16-14.96,6.09-20.11c3.93-5.14,8.99-9.14,15.18-11.98
		c6.18-2.85,13.15-4.64,20.89-5.39c5.11-0.49,10.25-0.69,15.42-0.63c1.43-0.02,2.85-0.02,4.28,0.01c1.24-0.02,2.49-0.03,3.73-0.02
		v-0.48c0.05-2.44-3.61-18.29-15.54-18.29c-1.77,0-32.86-0.16-32.86-0.16l8.87-17.16c0,0,23.27,0,26.59,0
		c10.41,0,17.2,2.7,21.89,5.14c4.68,2.44,8.65,6.03,11.9,10.76c3.25,4.74,4.81,11.04,4.68,18.89v74.96H471.01z M350.62,152.14
		c-1.35-0.09-2.69-0.15-4.01-0.19c-1.82,0.06-3.63,0.15-5.4,0.3c-5.81,0.48-10.96,1.69-15.46,3.66c-4.5,1.96-8.12,4.84-10.87,8.63
		c-2.75,3.79-4.18,8.8-4.31,15.03c-0.13,6.23,0.97,11.11,3.28,14.63c2.31,3.52,5.22,6.16,8.71,7.92c3.49,1.76,7.18,2.84,11.05,3.25
		c3.87,0.4,7.31,0.61,10.31,0.61h6.69V152.14z M370.84,215.73h-3.54h-28.24h-5.32h-3.55c-3.87,0-8.43-0.37-13.68-1.12
		c-5.25-0.74-10.21-2.33-14.9-4.77c-4.69-2.44-8.65-5.99-11.9-10.67c-3.25-4.67-4.81-11-4.68-18.99c0.12-8.26,2.15-14.96,6.09-20.11
		c3.94-5.14,8.99-9.14,15.18-11.98c6.18-2.85,13.15-4.64,20.89-5.39c5.11-0.49,10.25-0.69,15.42-0.63c1.43-0.02,2.85-0.02,4.28,0.01
		c1.24-0.02,2.48-0.03,3.73-0.02v-0.48c0.05-2.44-3.62-18.29-15.54-18.29c-1.77,0-32.85-0.16-32.85-0.16l8.86-17.16
		c0,0,23.27,0,26.59,0c10.42,0,17.21,2.7,21.89,5.14c4.69,2.44,8.65,6.03,11.9,10.76c3.25,4.74,4.81,11.04,4.69,18.89v74.96H370.84z
		 M78.48,152.14c-1.35-0.09-2.68-0.15-4.01-0.19c-1.82,0.06-3.62,0.15-5.39,0.3c-5.81,0.48-10.96,1.69-15.46,3.66
		c-4.5,1.96-8.12,4.84-10.87,8.63c-2.75,3.79-4.18,8.8-4.31,15.03c-0.13,6.23,0.96,11.11,3.28,14.63c2.31,3.52,5.21,6.16,8.71,7.92
		c3.5,1.76,7.18,2.84,11.06,3.25c3.87,0.4,7.31,0.61,10.31,0.61h6.69V152.14z M95.16,215.73H66.92H61.6h-3.54
		c-3.87,0-8.43-0.37-13.68-1.12c-5.25-0.74-10.21-2.33-14.9-4.77c-4.68-2.44-8.65-5.99-11.9-10.67c-3.25-4.67-4.81-11-4.68-18.99
		c0.13-8.26,2.15-14.96,6.09-20.11c3.93-5.14,8.99-9.14,15.18-11.98c6.18-2.85,13.15-4.64,20.89-5.39
		c5.11-0.49,10.25-0.69,15.42-0.63c1.43-0.02,2.85-0.02,4.28,0.01c1.24-0.02,2.49-0.03,3.73-0.02v-0.48
		c0.05-2.44-3.61-18.29-15.54-18.29c-1.77,0-32.86-0.16-32.86-0.16l8.86-17.16c0,0,23.27,0,26.6,0c10.41,0,17.2,2.7,21.89,5.14
		c4.69,2.44,8.65,6.03,11.9,10.76c3.24,4.74,4.81,11.04,4.68,18.89v74.96H98.7H95.16z M636.95,215.73h-3.55h-7.81h-5.32h-3.54v-77.4
		c0-7.72-2.06-14.05-6.18-18.99c-3.29-3.94-7.69-6.31-13.21-7.1c-5.6,0.79-10.05,3.16-13.35,7.1c-4.12,4.95-6.18,11.28-6.18,18.99
		v77.4h-5.32h-3.54h-7.82h-5.32h-3.54v-77.4c0-7.72-2.06-14.05-6.19-18.99c-4.12-4.94-10-7.41-17.61-7.41h-15.12v103.81h-5.32h-3.55
		h-7.81h-5.32h-3.55V102.37h3.55h5.32h31.8h3.54h5.32c6.25,0,12.21,1.12,17.89,3.35c3.68,1.44,6.97,3.35,9.89,5.67
		c2.91-2.33,6.18-4.23,9.82-5.67c5.62-2.24,11.62-3.35,17.99-3.35c0.64,0,1.28,0.01,1.92,0.04c0.54-0.02,1.08-0.04,1.63-0.04
		c0.88,0,1.76,0.03,2.62,0.08c0.89-0.05,1.79-0.08,2.69-0.08c5.25,0,10.31,0.78,15.18,2.34c4.87,1.55,9.18,3.86,12.93,6.91
		c3.75,3.05,6.75,6.77,8.99,11.17c2.25,4.4,3.37,9.38,3.37,14.93v78.01H636.95z"/>
	<g>
		<g>
			<path class="st2" d="M972.71,93.92c-0.71-2.08-1.45-4.13-2.21-6.16c-0.76-2.03-1.5-4.1-2.21-6.23h-22.24
				c-0.71,2.13-1.43,4.22-2.17,6.27c-0.74,2.05-1.46,4.09-2.17,6.12h-9.96c1.97-5.62,3.85-10.81,5.62-15.58
				c1.77-4.76,3.5-9.27,5.2-13.52c1.7-4.26,3.38-8.31,5.05-12.16s3.39-7.65,5.16-11.4h9.14c1.77,3.75,3.5,7.55,5.17,11.4
				c1.67,3.85,3.35,7.9,5.05,12.16c1.7,4.25,3.45,8.76,5.25,13.52c1.8,4.76,3.68,9.95,5.66,15.58H972.71z M957.17,51.45
				c-1.16,2.68-2.49,5.95-3.99,9.8c-1.49,3.85-3.05,8.03-4.67,12.53h17.32c-1.62-4.51-3.19-8.71-4.71-12.61
				C959.61,57.27,958.29,54.03,957.17,51.45z"/>
			<path class="st2" d="M1011.84,62.46c-0.76-0.25-1.81-0.52-3.15-0.8c-1.34-0.28-2.9-0.42-4.67-0.42c-1.01,0-2.09,0.1-3.23,0.3
				c-1.14,0.2-1.94,0.38-2.39,0.53v31.84h-9.19V56.08c1.77-0.66,3.99-1.28,6.65-1.86s5.61-0.87,8.85-0.87
				c0.61,0,1.32,0.04,2.13,0.11c0.81,0.08,1.62,0.18,2.43,0.3c0.81,0.13,1.59,0.28,2.35,0.46c0.76,0.18,1.37,0.34,1.82,0.49
				L1011.84,62.46z"/>
			<path class="st2" d="M1052.64,89.89c0,6.33-1.61,10.97-4.83,13.91c-3.22,2.94-8.14,4.41-14.78,4.41c-2.43,0-4.8-0.2-7.11-0.61
				c-2.3-0.41-4.39-0.94-6.27-1.59l1.67-7.83c1.57,0.66,3.35,1.19,5.36,1.6c2,0.4,4.17,0.61,6.5,0.61c3.7,0,6.33-0.76,7.9-2.28
				c1.57-1.52,2.35-3.77,2.35-6.76v-1.52c-0.91,0.46-2.12,0.91-3.61,1.37c-1.49,0.46-3.2,0.69-5.13,0.69c-2.53,0-4.85-0.4-6.95-1.22
				c-2.1-0.81-3.9-2-5.39-3.57c-1.5-1.57-2.66-3.53-3.5-5.89c-0.83-2.36-1.25-5.08-1.25-8.17c0-2.89,0.44-5.55,1.33-7.98
				c0.88-2.43,2.18-4.51,3.87-6.23c1.7-1.72,3.76-3.06,6.19-4.03c2.43-0.96,5.19-1.44,8.28-1.44c2.99,0,5.83,0.23,8.51,0.68
				c2.68,0.46,4.96,0.94,6.84,1.45V89.89z M1027.03,73.02c0,3.9,0.85,6.75,2.55,8.55c1.7,1.8,3.89,2.7,6.57,2.7
				c1.47,0,2.85-0.2,4.14-0.61c1.29-0.4,2.34-0.89,3.15-1.44V61.63c-0.66-0.15-1.47-0.29-2.43-0.42c-0.96-0.13-2.18-0.19-3.65-0.19
				c-3.34,0-5.9,1.1-7.68,3.31C1027.92,66.53,1027.03,69.43,1027.03,73.02z"/>
			<path class="st2" d="M1077.56,53.19c3.04,0,5.6,0.38,7.67,1.14c2.08,0.76,3.74,1.82,4.98,3.19c1.24,1.37,2.13,3.03,2.66,4.98
				c0.53,1.95,0.8,4.09,0.8,6.42V93c-1.42,0.3-3.56,0.67-6.42,1.1c-2.86,0.43-6.09,0.64-9.69,0.64c-2.38,0-4.56-0.23-6.53-0.68
				c-1.98-0.46-3.66-1.19-5.05-2.2c-1.39-1.01-2.48-2.33-3.27-3.95c-0.79-1.62-1.18-3.62-1.18-6c0-2.28,0.44-4.2,1.33-5.77
				c0.88-1.57,2.09-2.85,3.61-3.84c1.52-0.99,3.28-1.7,5.28-2.13c2-0.43,4.09-0.65,6.27-0.65c1.01,0,2.07,0.06,3.19,0.19
				c1.11,0.13,2.3,0.34,3.57,0.64v-1.52c0-1.06-0.13-2.08-0.38-3.04c-0.25-0.96-0.7-1.81-1.33-2.55c-0.63-0.73-1.47-1.3-2.51-1.71
				c-1.04-0.4-2.34-0.61-3.91-0.61c-2.13,0-4.08,0.15-5.85,0.46c-1.77,0.3-3.22,0.66-4.33,1.06l-1.14-7.45
				c1.16-0.4,2.86-0.81,5.09-1.22C1072.65,53.4,1075.03,53.19,1077.56,53.19z M1078.32,87.46c2.83,0,4.99-0.15,6.46-0.45V76.82
				c-0.51-0.15-1.24-0.3-2.2-0.46c-0.96-0.15-2.03-0.23-3.19-0.23c-1.01,0-2.04,0.07-3.08,0.23c-1.04,0.15-1.98,0.43-2.81,0.83
				c-0.83,0.41-1.51,0.98-2.01,1.71c-0.51,0.73-0.76,1.66-0.76,2.77c0,2.18,0.68,3.69,2.05,4.52
				C1074.14,87.04,1075.99,87.46,1078.32,87.46z"/>
			<path class="st2" d="M1118.13,53.19c3.04,0,5.6,0.38,7.67,1.14c2.08,0.76,3.74,1.82,4.98,3.19c1.24,1.37,2.13,3.03,2.66,4.98
				c0.53,1.95,0.8,4.09,0.8,6.42V93c-1.42,0.3-3.56,0.67-6.42,1.1c-2.86,0.43-6.09,0.64-9.69,0.64c-2.38,0-4.56-0.23-6.53-0.68
				c-1.98-0.46-3.66-1.19-5.05-2.2c-1.39-1.01-2.48-2.33-3.27-3.95c-0.79-1.62-1.18-3.62-1.18-6c0-2.28,0.44-4.2,1.33-5.77
				c0.88-1.57,2.09-2.85,3.61-3.84c1.52-0.99,3.28-1.7,5.28-2.13c2-0.43,4.09-0.65,6.27-0.65c1.01,0,2.07,0.06,3.19,0.19
				c1.11,0.13,2.3,0.34,3.57,0.64v-1.52c0-1.06-0.13-2.08-0.38-3.04c-0.25-0.96-0.7-1.81-1.33-2.55c-0.63-0.73-1.47-1.3-2.51-1.71
				c-1.04-0.4-2.34-0.61-3.91-0.61c-2.13,0-4.08,0.15-5.85,0.46c-1.77,0.3-3.22,0.66-4.33,1.06l-1.14-7.45
				c1.16-0.4,2.86-0.81,5.09-1.22C1113.22,53.4,1115.6,53.19,1118.13,53.19z M1118.89,87.46c2.83,0,4.99-0.15,6.46-0.45V76.82
				c-0.51-0.15-1.24-0.3-2.2-0.46c-0.96-0.15-2.03-0.23-3.19-0.23c-1.01,0-2.04,0.07-3.08,0.23s-1.98,0.43-2.81,0.83
				c-0.83,0.41-1.51,0.98-2.01,1.71c-0.51,0.73-0.76,1.66-0.76,2.77c0,2.18,0.68,3.69,2.05,4.52
				C1114.71,87.04,1116.56,87.46,1118.89,87.46z"/>
			<path class="st2" d="M1168.12,73.02c0-4.15-0.52-7.15-1.56-9c-1.04-1.85-2.98-2.77-5.81-2.77c-1.01,0-2.13,0.07-3.34,0.23
				c-1.21,0.15-2.13,0.28-2.73,0.38v32.06h-9.19V55.47c1.77-0.51,4.09-0.99,6.95-1.45c2.86-0.46,5.89-0.68,9.08-0.68
				c2.73,0,4.98,0.36,6.72,1.06c1.75,0.71,3.2,1.65,4.37,2.81c0.56-0.4,1.27-0.83,2.13-1.29c0.86-0.46,1.82-0.88,2.89-1.25
				c1.06-0.38,2.19-0.7,3.38-0.95c1.19-0.25,2.39-0.38,3.61-0.38c3.09,0,5.63,0.44,7.64,1.33c2,0.89,3.57,2.13,4.71,3.72
				c1.14,1.59,1.92,3.52,2.35,5.77c0.43,2.25,0.65,4.72,0.65,7.41v22.34h-9.19V73.02c0-4.15-0.51-7.15-1.52-9
				c-1.01-1.85-2.96-2.77-5.85-2.77c-1.47,0-2.86,0.24-4.18,0.72c-1.32,0.48-2.31,0.95-2.96,1.4c0.4,1.27,0.68,2.61,0.83,4.03
				c0.15,1.42,0.23,2.94,0.23,4.56v21.96h-9.19V73.02z"/>
			<path class="st2" d="M952.2,131.91c7.6,0,13.41,1.39,17.44,4.18c4.03,2.79,6.04,7.04,6.04,12.76c0,7.14-3.52,11.98-10.56,14.51
				c0.96,1.17,2.05,2.58,3.27,4.26c1.22,1.67,2.46,3.48,3.72,5.43c1.27,1.95,2.48,3.95,3.65,6c1.16,2.05,2.21,4.06,3.12,6.04h-10.71
				c-0.96-1.82-2-3.66-3.12-5.51c-1.12-1.85-2.24-3.65-3.38-5.4c-1.14-1.75-2.27-3.39-3.38-4.94c-1.12-1.55-2.15-2.93-3.12-4.14
				c-0.71,0.05-1.32,0.08-1.82,0.08c-0.51,0-0.99,0-1.44,0h-4.64v19.91h-9.57V133.2c2.33-0.51,4.81-0.85,7.44-1.03
				C947.76,131.99,950.12,131.91,952.2,131.91z M952.88,140.19c-2.03,0-3.9,0.08-5.62,0.23v17.02h4.18c2.33,0,4.38-0.13,6.16-0.38
				c1.77-0.25,3.25-0.71,4.44-1.37c1.19-0.66,2.09-1.55,2.7-2.66c0.61-1.11,0.91-2.53,0.91-4.26c0-1.62-0.3-2.99-0.91-4.1
				c-0.61-1.11-1.48-2-2.62-2.66c-1.14-0.66-2.49-1.13-4.06-1.41C956.48,140.33,954.75,140.19,952.88,140.19z"/>
			<path class="st2" d="M983.65,165.41c0-3.49,0.52-6.56,1.56-9.19c1.04-2.63,2.42-4.82,4.14-6.57c1.72-1.75,3.7-3.06,5.93-3.95
				c2.23-0.89,4.51-1.33,6.84-1.33c5.47,0,9.74,1.7,12.8,5.09c3.06,3.39,4.6,8.46,4.6,15.2c0,0.51-0.01,1.07-0.04,1.71
				c-0.03,0.63-0.06,1.2-0.11,1.71h-26.21c0.25,3.19,1.38,5.66,3.38,7.41c2,1.75,4.9,2.62,8.7,2.62c2.23,0,4.27-0.2,6.12-0.61
				c1.85-0.4,3.31-0.83,4.37-1.29l1.22,7.52c-0.51,0.25-1.21,0.52-2.09,0.8c-0.89,0.28-1.9,0.53-3.04,0.76
				c-1.14,0.23-2.37,0.42-3.68,0.57c-1.32,0.15-2.66,0.23-4.03,0.23c-3.5,0-6.53-0.52-9.12-1.56c-2.58-1.04-4.71-2.48-6.38-4.33
				c-1.67-1.85-2.91-4.03-3.72-6.53C984.06,171.15,983.65,168.4,983.65,165.41z M1010.32,161.31c0-1.27-0.18-2.47-0.53-3.61
				c-0.36-1.14-0.87-2.13-1.56-2.96c-0.68-0.83-1.52-1.49-2.51-1.98c-0.99-0.48-2.16-0.72-3.53-0.72c-1.42,0-2.66,0.27-3.72,0.8
				s-1.96,1.23-2.7,2.09c-0.73,0.86-1.3,1.85-1.71,2.96c-0.4,1.12-0.68,2.25-0.83,3.42H1010.32z"/>
			<path class="st2" d="M1027.03,165.26c0-2.94,0.46-5.68,1.37-8.24c0.91-2.56,2.22-4.77,3.91-6.65c1.7-1.87,3.76-3.34,6.19-4.41
				c2.43-1.06,5.17-1.59,8.21-1.59c3.75,0,7.29,0.68,10.64,2.05l-1.98,7.52c-1.06-0.46-2.27-0.84-3.61-1.14
				c-1.34-0.3-2.77-0.46-4.29-0.46c-3.6,0-6.33,1.13-8.21,3.38s-2.81,5.43-2.81,9.53c0,3.95,0.89,7.08,2.66,9.38
				c1.77,2.31,4.76,3.46,8.97,3.46c1.57,0,3.11-0.15,4.64-0.46c1.52-0.3,2.83-0.68,3.95-1.14l1.29,7.6
				c-1.01,0.51-2.54,0.96-4.6,1.37c-2.05,0.41-4.17,0.61-6.34,0.61c-3.39,0-6.34-0.52-8.85-1.56c-2.51-1.04-4.59-2.48-6.23-4.33
				c-1.65-1.85-2.88-4.05-3.68-6.61C1027.44,171.02,1027.03,168.25,1027.03,165.26z"/>
			<path class="st2" d="M1100.2,165.19c0,3.14-0.46,6-1.37,8.59c-0.91,2.58-2.2,4.79-3.88,6.61c-1.67,1.82-3.68,3.24-6.04,4.25
				c-2.35,1.01-4.95,1.52-7.79,1.52s-5.42-0.51-7.75-1.52c-2.33-1.01-4.33-2.43-6-4.25c-1.67-1.82-2.98-4.03-3.91-6.61
				c-0.94-2.58-1.41-5.44-1.41-8.59s0.47-5.99,1.41-8.55c0.94-2.56,2.25-4.75,3.95-6.57c1.7-1.82,3.71-3.23,6.04-4.22
				c2.33-0.99,4.89-1.48,7.67-1.48c2.79,0,5.36,0.49,7.71,1.48c2.36,0.99,4.37,2.39,6.04,4.22c1.67,1.82,2.97,4.01,3.91,6.57
				C1099.73,159.19,1100.2,162.04,1100.2,165.19z M1090.78,165.19c0-3.95-0.85-7.08-2.55-9.38c-1.7-2.3-4.06-3.46-7.1-3.46
				c-3.04,0-5.41,1.15-7.1,3.46c-1.7,2.31-2.55,5.43-2.55,9.38c0,4,0.85,7.17,2.55,9.5c1.7,2.33,4.07,3.5,7.1,3.5
				c3.04,0,5.41-1.16,7.1-3.5C1089.93,172.35,1090.78,169.19,1090.78,165.19z"/>
			<path class="st2" d="M1142.52,181.06c0,6.33-1.61,10.97-4.83,13.91c-3.22,2.94-8.14,4.41-14.78,4.41c-2.43,0-4.8-0.2-7.11-0.61
				c-2.3-0.41-4.39-0.94-6.27-1.59l1.67-7.83c1.57,0.66,3.35,1.19,5.36,1.6c2,0.4,4.17,0.61,6.5,0.61c3.7,0,6.33-0.76,7.9-2.28
				c1.57-1.52,2.35-3.77,2.35-6.76v-1.52c-0.91,0.46-2.12,0.91-3.61,1.37c-1.49,0.46-3.2,0.69-5.13,0.69c-2.53,0-4.85-0.4-6.95-1.22
				c-2.1-0.81-3.9-2-5.39-3.57c-1.5-1.57-2.66-3.53-3.5-5.89c-0.83-2.36-1.25-5.08-1.25-8.17c0-2.89,0.44-5.55,1.33-7.98
				c0.88-2.43,2.18-4.51,3.87-6.23c1.7-1.72,3.76-3.06,6.19-4.03c2.43-0.96,5.19-1.44,8.28-1.44c2.99,0,5.83,0.23,8.51,0.68
				s4.96,0.94,6.84,1.45V181.06z M1116.92,164.2c0,3.9,0.85,6.75,2.55,8.55c1.7,1.8,3.89,2.7,6.57,2.7c1.47,0,2.85-0.2,4.14-0.61
				c1.29-0.4,2.34-0.89,3.15-1.44V152.8c-0.66-0.15-1.47-0.29-2.43-0.42c-0.96-0.13-2.18-0.19-3.65-0.19c-3.34,0-5.9,1.1-7.68,3.31
				S1116.92,160.6,1116.92,164.2z"/>
			<path class="st2" d="M1154.22,146.65c1.77-0.51,4.08-0.99,6.91-1.45s5.98-0.68,9.42-0.68c3.24,0,5.95,0.44,8.13,1.33
				c2.18,0.89,3.91,2.13,5.2,3.72s2.2,3.52,2.74,5.77c0.53,2.25,0.8,4.72,0.8,7.41v22.34h-9.19V164.2c0-2.13-0.14-3.94-0.42-5.43
				c-0.28-1.49-0.73-2.71-1.37-3.65s-1.49-1.62-2.58-2.05c-1.09-0.43-2.42-0.64-3.99-0.64c-1.16,0-2.38,0.07-3.65,0.23
				c-1.27,0.15-2.2,0.28-2.81,0.38v32.06h-9.19V146.65z"/>
			<path class="st2" d="M1208.93,133.73c0,1.72-0.56,3.09-1.67,4.1c-1.12,1.01-2.43,1.52-3.95,1.52c-1.57,0-2.91-0.51-4.02-1.52
				c-1.12-1.01-1.67-2.38-1.67-4.1c0-1.77,0.56-3.17,1.67-4.18c1.11-1.01,2.46-1.52,4.02-1.52c1.52,0,2.84,0.51,3.95,1.52
				C1208.37,130.56,1208.93,131.96,1208.93,133.73z M1207.94,185.09h-9.19v-39.74h9.19V185.09z"/>
			<path class="st2" d="M1219.18,134.87l9.19-1.52v12h14.13v7.68h-14.13v16.18c0,3.19,0.51,5.47,1.52,6.84
				c1.01,1.37,2.73,2.05,5.17,2.05c1.67,0,3.15-0.18,4.44-0.53c1.29-0.36,2.32-0.69,3.08-0.99l1.52,7.29
				c-1.06,0.46-2.46,0.92-4.18,1.41c-1.72,0.48-3.75,0.72-6.08,0.72c-2.84,0-5.2-0.38-7.1-1.14c-1.9-0.76-3.41-1.86-4.52-3.31
				c-1.11-1.45-1.9-3.19-2.35-5.24c-0.46-2.05-0.68-4.39-0.68-7.03V134.87z"/>
			<path class="st2" d="M1261.65,133.73c0,1.72-0.56,3.09-1.67,4.1c-1.12,1.01-2.43,1.52-3.95,1.52c-1.57,0-2.91-0.51-4.02-1.52
				c-1.12-1.01-1.67-2.38-1.67-4.1c0-1.77,0.56-3.17,1.67-4.18c1.11-1.01,2.46-1.52,4.02-1.52c1.52,0,2.84,0.51,3.95,1.52
				C1261.1,130.56,1261.65,131.96,1261.65,133.73z M1260.66,185.09h-9.19v-39.74h9.19V185.09z"/>
			<path class="st2" d="M1308.3,165.19c0,3.14-0.46,6-1.37,8.59c-0.91,2.58-2.2,4.79-3.88,6.61c-1.67,1.82-3.68,3.24-6.04,4.25
				c-2.35,1.01-4.95,1.52-7.79,1.52c-2.84,0-5.42-0.51-7.75-1.52c-2.33-1.01-4.33-2.43-6-4.25c-1.67-1.82-2.98-4.03-3.91-6.61
				c-0.94-2.58-1.41-5.44-1.41-8.59s0.47-5.99,1.41-8.55c0.94-2.56,2.25-4.75,3.95-6.57c1.7-1.82,3.71-3.23,6.04-4.22
				c2.33-0.99,4.89-1.48,7.67-1.48c2.79,0,5.36,0.49,7.71,1.48s4.37,2.39,6.04,4.22c1.67,1.82,2.97,4.01,3.91,6.57
				C1307.83,159.19,1308.3,162.04,1308.3,165.19z M1298.88,165.19c0-3.95-0.85-7.08-2.55-9.38c-1.7-2.3-4.06-3.46-7.1-3.46
				c-3.04,0-5.41,1.15-7.1,3.46c-1.7,2.31-2.55,5.43-2.55,9.38c0,4,0.85,7.17,2.55,9.5c1.7,2.33,4.07,3.5,7.1,3.5
				c3.04,0,5.41-1.16,7.1-3.5C1298.03,172.35,1298.88,169.19,1298.88,165.19z"/>
			<path class="st2" d="M1317.8,146.65c1.77-0.51,4.08-0.99,6.91-1.45s5.98-0.68,9.42-0.68c3.24,0,5.95,0.44,8.13,1.33
				c2.18,0.89,3.91,2.13,5.2,3.72c1.29,1.59,2.2,3.52,2.74,5.77c0.53,2.25,0.8,4.72,0.8,7.41v22.34h-9.19V164.2
				c0-2.13-0.14-3.94-0.42-5.43c-0.28-1.49-0.73-2.71-1.37-3.65s-1.49-1.62-2.58-2.05c-1.09-0.43-2.42-0.64-3.99-0.64
				c-1.16,0-2.38,0.07-3.65,0.23c-1.27,0.15-2.2,0.28-2.81,0.38v32.06h-9.19V146.65z"/>
			<path class="st2" d="M972.71,276.26c-0.71-2.08-1.45-4.13-2.21-6.16c-0.76-2.03-1.5-4.1-2.21-6.23h-22.24
				c-0.71,2.13-1.43,4.22-2.17,6.27c-0.74,2.05-1.46,4.09-2.17,6.12h-9.96c1.97-5.62,3.85-10.81,5.62-15.58
				c1.77-4.76,3.5-9.27,5.2-13.52c1.7-4.26,3.38-8.31,5.05-12.16s3.39-7.65,5.16-11.4h9.14c1.77,3.75,3.5,7.55,5.17,11.4
				c1.67,3.85,3.35,7.9,5.05,12.16c1.7,4.25,3.45,8.76,5.25,13.52c1.8,4.76,3.68,9.95,5.66,15.58H972.71z M957.17,233.79
				c-1.16,2.68-2.49,5.95-3.99,9.8c-1.49,3.85-3.05,8.03-4.67,12.53h17.32c-1.62-4.51-3.19-8.71-4.71-12.61
				C959.61,239.62,958.29,236.37,957.17,233.79z"/>
			<path class="st2" d="M1011.65,251.27c-1.16,4.46-2.42,8.8-3.76,13.03c-1.34,4.23-2.67,8.22-3.98,11.97h-7.55
				c-1.01-2.33-2.08-4.99-3.2-7.98c-1.12-2.99-2.23-6.18-3.35-9.57c-1.12-3.39-2.23-6.96-3.35-10.71
				c-1.12-3.75-2.21-7.57-3.27-11.47h9.73c0.46,2.13,0.99,4.42,1.6,6.88c0.61,2.46,1.25,4.96,1.91,7.52
				c0.66,2.56,1.35,5.05,2.06,7.48c0.71,2.43,1.43,4.66,2.14,6.69c0.76-2.33,1.51-4.74,2.25-7.22c0.74-2.48,1.43-4.96,2.09-7.45
				c0.66-2.48,1.28-4.9,1.87-7.26c0.58-2.36,1.1-4.57,1.56-6.65h7.07c0.45,2.08,0.96,4.29,1.52,6.65c0.55,2.35,1.15,4.77,1.78,7.26
				c0.63,2.48,1.31,4.96,2.05,7.45c0.73,2.48,1.48,4.89,2.24,7.22c0.66-2.03,1.35-4.25,2.06-6.69c0.71-2.43,1.41-4.93,2.1-7.48
				c0.69-2.56,1.34-5.06,1.95-7.52c0.61-2.46,1.15-4.75,1.6-6.88h9.5c-1.07,3.9-2.16,7.73-3.27,11.47
				c-1.12,3.75-2.23,7.32-3.35,10.71c-1.12,3.39-2.23,6.59-3.35,9.57c-1.12,2.99-2.21,5.65-3.27,7.98h-7.47
				c-1.32-3.75-2.67-7.74-4.06-11.97C1014.09,260.07,1012.81,255.72,1011.65,251.27z"/>
			<path class="st2" d="M1060.39,235.54c3.04,0,5.6,0.38,7.67,1.14c2.08,0.76,3.74,1.82,4.98,3.19c1.24,1.37,2.13,3.03,2.66,4.98
				c0.53,1.95,0.8,4.09,0.8,6.42v24.09c-1.42,0.3-3.56,0.67-6.42,1.1c-2.86,0.43-6.09,0.64-9.69,0.64c-2.38,0-4.56-0.23-6.53-0.68
				c-1.98-0.46-3.66-1.19-5.05-2.2c-1.39-1.01-2.48-2.33-3.27-3.95c-0.79-1.62-1.18-3.62-1.18-6c0-2.28,0.44-4.2,1.33-5.77
				c0.88-1.57,2.09-2.85,3.61-3.84c1.52-0.99,3.28-1.7,5.28-2.13c2-0.43,4.09-0.65,6.27-0.65c1.01,0,2.07,0.06,3.19,0.19
				c1.11,0.13,2.3,0.34,3.57,0.64v-1.52c0-1.06-0.13-2.08-0.38-3.04c-0.25-0.96-0.7-1.81-1.33-2.55c-0.63-0.73-1.47-1.3-2.51-1.71
				c-1.04-0.4-2.34-0.61-3.91-0.61c-2.13,0-4.08,0.15-5.85,0.46c-1.77,0.3-3.22,0.66-4.33,1.06l-1.14-7.45
				c1.16-0.4,2.86-0.81,5.09-1.22C1055.48,235.74,1057.86,235.54,1060.39,235.54z M1061.15,269.8c2.83,0,4.99-0.15,6.46-0.45v-10.18
				c-0.51-0.15-1.24-0.3-2.2-0.46c-0.96-0.15-2.03-0.23-3.19-0.23c-1.01,0-2.04,0.07-3.08,0.23s-1.98,0.43-2.81,0.83
				c-0.83,0.41-1.51,0.98-2.01,1.71c-0.51,0.73-0.76,1.66-0.76,2.77c0,2.18,0.68,3.69,2.05,4.52
				C1056.97,269.39,1058.82,269.8,1061.15,269.8z"/>
			<path class="st2" d="M1110.38,244.81c-0.76-0.25-1.81-0.52-3.15-0.8c-1.34-0.28-2.9-0.42-4.67-0.42c-1.01,0-2.09,0.1-3.23,0.3
				c-1.14,0.2-1.94,0.38-2.39,0.53v31.84h-9.19v-37.84c1.77-0.66,3.99-1.28,6.65-1.86c2.66-0.58,5.61-0.87,8.85-0.87
				c0.61,0,1.32,0.04,2.13,0.11c0.81,0.08,1.62,0.18,2.43,0.3c0.81,0.13,1.59,0.28,2.35,0.46c0.76,0.18,1.37,0.34,1.82,0.49
				L1110.38,244.81z"/>
			<path class="st2" d="M1151.94,275.05c-1.82,0.56-4.12,1.06-6.88,1.52c-2.76,0.46-5.66,0.68-8.7,0.68c-3.14,0-5.95-0.48-8.43-1.44
				c-2.48-0.96-4.6-2.34-6.34-4.14c-1.75-1.8-3.09-3.98-4.03-6.53s-1.41-5.43-1.41-8.62c0-3.14,0.39-5.99,1.18-8.55
				c0.78-2.56,1.94-4.75,3.46-6.57c1.52-1.82,3.37-3.23,5.55-4.22c2.18-0.99,4.68-1.48,7.52-1.48c1.92,0,3.62,0.23,5.09,0.68
				c1.47,0.46,2.74,0.96,3.8,1.52v-19.07l9.19-1.52V275.05z M1125.58,256.28c0,4.05,0.96,7.23,2.89,9.54
				c1.92,2.31,4.58,3.46,7.98,3.46c1.47,0,2.72-0.06,3.76-0.19c1.04-0.12,1.89-0.27,2.55-0.42v-22.79
				c-0.81-0.56-1.89-1.07-3.23-1.56c-1.34-0.48-2.77-0.72-4.29-0.72c-3.34,0-5.79,1.14-7.33,3.42
				C1126.35,249.29,1125.58,252.38,1125.58,256.28z"/>
		</g>
		<g>
			<g>
				<path class="st3" d="M919.65,276.66H701.24c-0.87,0-1.69-0.4-2.23-1.08c-0.54-0.68-0.74-1.57-0.54-2.42l9.18-39.38
					c0.3-1.29,1.45-2.2,2.77-2.2h195.76c1.22,0,2.3,0.78,2.69,1.93l13.46,39.38c0.3,0.87,0.16,1.83-0.38,2.58
					C921.43,276.21,920.56,276.66,919.65,276.66z M704.83,270.96h210.83l-11.51-33.69H712.68L704.83,270.96z"/>
			</g>
			<g>
				<path class="st3" d="M776.73,237.27c-1.57,0-2.85-1.28-2.85-2.85v-51.48l-39.77,30.64v20.84c0,1.57-1.27,2.85-2.85,2.85
					c-1.57,0-2.85-1.28-2.85-2.85v-22.24c0-0.88,0.41-1.72,1.11-2.26l45.47-35.02c0.86-0.67,2.02-0.78,3-0.3
					c0.97,0.48,1.59,1.47,1.59,2.56v57.27C779.58,235.99,778.3,237.27,776.73,237.27z"/>
			</g>
			<g>
				<path class="st1" d="M882.74,132.62c-0.52-0.61-1.27-0.96-2.08-0.96h-8.11c-1.08,0-2.06,0.64-2.49,1.64
					c-0.41,0.94-0.25,2.02,0.4,2.81l-59.71,45.52l-27.92-26.54c-0.8-0.76-1.84-1.18-2.95-1.18c-0.94,0-1.87,0.32-2.61,0.89
					l-41.68,32.2c-1.86,1.44-2.21,4.13-0.77,5.99c0.82,1.06,2.05,1.66,3.39,1.66c0.95,0,1.85-0.31,2.61-0.89l38.78-29.96l27.9,26.52
					c0.8,0.76,1.84,1.17,2.94,1.17c0.94,0,1.84-0.3,2.59-0.87l63.32-48.28l1.12,1.19c0.52,0.55,1.22,0.85,1.96,0.85
					c1.34,0,2.46-0.95,2.68-2.27l1.22-7.3C883.47,134.04,883.26,133.23,882.74,132.62z"/>
			</g>
			<g>
				<path class="st3" d="M828.51,237.27h-39.15c-1.57,0-2.85-1.28-2.85-2.85v-43.36c0-1.14,0.68-2.17,1.72-2.62
					c1.05-0.45,2.26-0.23,3.09,0.55l19.33,18.38l16.14-12.22c0.86-0.66,2.02-0.76,2.99-0.28c0.97,0.48,1.58,1.47,1.58,2.55v37
					C831.36,235.99,830.09,237.27,828.51,237.27z M792.21,231.57h33.46v-28.42l-13.5,10.22c-1.11,0.84-2.67,0.76-3.68-0.21
					l-16.27-15.47V231.57z"/>
			</g>
			<g>
				<path class="st3" d="M885.98,237.27h-45.47c-1.57,0-2.85-1.28-2.85-2.85v-46.08c0-0.89,0.42-1.73,1.13-2.27l45.47-34.42
					c0.87-0.65,2.02-0.76,2.99-0.28c0.97,0.48,1.58,1.47,1.58,2.55v80.5C888.83,235.99,887.55,237.27,885.98,237.27z M843.36,231.57
					h39.77v-71.92l-39.77,30.11V231.57z"/>
			</g>
			<g>
				<path class="st3" d="M731.26,180.19c-0.43,0-0.86-0.1-1.26-0.29c-0.98-0.48-1.59-1.47-1.59-2.56V43.81
					c0-1.57,1.28-2.85,2.85-2.85h154.71c1.57,0,2.85,1.28,2.85,2.85v67.57c0,0.89-0.41,1.72-1.12,2.26l-75.53,57.84
					c-1.1,0.84-2.65,0.77-3.67-0.17l-29.45-27.3L733,179.59C732.5,179.99,731.88,180.19,731.26,180.19z M734.11,46.66v124.88
					l43.37-33.52c1.1-0.85,2.66-0.78,3.68,0.17l29.46,27.31l72.51-55.53V46.66H734.11z"/>
			</g>
			<g>
				<path class="st1" d="M771.66,93.2c-1.21,0-2.19-0.36-2.91-1.08c-0.72-0.71-1.11-1.61-1.11-2.59c0-0.6,0.19-1.31,0.58-2.17
					c0.37-0.82,0.78-1.45,1.24-1.95c1.54-1.6,2.92-2.96,4.15-4.09c1.27-1.17,2.17-1.93,2.76-2.33c0.83-0.59,1.54-1.2,2.1-1.79
					c0.52-0.56,0.92-1.13,1.18-1.7c0.24-0.52,0.37-1.03,0.37-1.51c0-0.49-0.11-0.9-0.33-1.27c-0.22-0.37-0.52-0.65-0.91-0.86
					c-0.41-0.22-0.84-0.32-1.33-0.32c-1.04,0-1.8,0.43-2.41,1.37c-0.09,0.17-0.23,0.54-0.43,1.11c-0.32,0.93-0.7,1.63-1.13,2.15
					c-0.41,0.5-1.17,1.09-2.48,1.09c-0.92,0-1.72-0.33-2.34-0.95c-0.43-0.42-0.94-1.2-0.94-2.46c0-0.95,0.21-1.94,0.63-2.95
					c0.42-1.01,1.05-1.94,1.86-2.75c0.83-0.82,1.87-1.48,3.1-1.97c1.22-0.48,2.65-0.73,4.26-0.73c1.91,0,3.59,0.31,4.98,0.93
					c0.95,0.44,1.8,1.04,2.51,1.8c0.71,0.75,1.28,1.63,1.67,2.62c0.4,0.99,0.6,2.03,0.6,3.09c0,1.65-0.42,3.17-1.24,4.52
					c-0.76,1.26-1.57,2.27-2.38,3c-0.74,0.66-1.97,1.7-3.7,3.12c-0.96,0.79-1.75,1.47-2.34,2.04h6.05c1.18,0,2.13,0.28,2.83,0.82
					c0.79,0.61,1.2,1.48,1.2,2.51c0,0.89-0.32,1.69-0.91,2.32c-0.62,0.65-1.51,0.98-2.63,0.98H771.66z"/>
				<path class="st1" d="M798.14,93.6c-1.99,0-3.81-0.57-5.4-1.71c-1.57-1.12-2.77-2.68-3.55-4.64c-0.4-1.05-0.68-2.2-0.86-3.43
					c-0.17-1.19-0.26-2.5-0.26-3.89c0-1.76,0.09-3.38,0.28-4.81c0.19-1.47,0.51-2.76,0.93-3.85c0.78-1.89,1.92-3.35,3.41-4.35
					c1.49-1,3.28-1.51,5.3-1.51c1.33,0,2.56,0.22,3.67,0.66c1.12,0.45,2.11,1.11,2.96,1.97c0.83,0.84,1.53,1.88,2.09,3.09
					c0.95,2.07,1.42,4.85,1.42,8.51c0,1.93-0.12,3.62-0.36,5.02c-0.25,1.48-0.73,2.85-1.41,4.07c-0.89,1.54-2.05,2.75-3.47,3.59
					C801.47,93.17,799.87,93.6,798.14,93.6z M798.08,71.5c-0.95,0-1.51,0.43-1.9,1.43c-0.52,1.35-0.79,3.54-0.79,6.51
					c0,2.04,0.12,3.73,0.35,5.01c0.21,1.13,0.53,1.96,0.97,2.48c0.34,0.4,0.78,0.58,1.4,0.58c0.83,0,1.21-0.32,1.44-0.61
					c0.45-0.55,0.77-1.4,0.97-2.52c0.23-1.28,0.34-2.99,0.34-5.09c0-1.99-0.12-3.62-0.35-4.86c-0.2-1.09-0.53-1.89-0.96-2.38
					C799.33,71.82,798.95,71.5,798.08,71.5z"/>
				<path class="st1" d="M813.12,93.2c-1.21,0-2.19-0.36-2.91-1.08c-0.72-0.71-1.11-1.61-1.11-2.59c0-0.6,0.19-1.31,0.58-2.17
					c0.37-0.82,0.78-1.45,1.24-1.95c1.54-1.6,2.92-2.96,4.15-4.09c1.27-1.17,2.17-1.93,2.76-2.33c0.83-0.59,1.54-1.2,2.1-1.79
					c0.52-0.56,0.92-1.13,1.18-1.7c0.24-0.52,0.37-1.03,0.37-1.51c0-0.49-0.11-0.9-0.33-1.27c-0.22-0.37-0.52-0.65-0.91-0.86
					c-0.41-0.22-0.84-0.32-1.33-0.32c-1.04,0-1.8,0.43-2.41,1.37c-0.09,0.17-0.23,0.54-0.43,1.11c-0.32,0.93-0.7,1.63-1.13,2.15
					c-0.41,0.5-1.17,1.09-2.48,1.09c-0.92,0-1.72-0.33-2.34-0.95c-0.43-0.42-0.94-1.2-0.94-2.46c0-0.95,0.21-1.94,0.63-2.95
					c0.42-1.01,1.05-1.94,1.86-2.75c0.83-0.82,1.87-1.48,3.1-1.97c1.22-0.48,2.65-0.73,4.26-0.73c1.91,0,3.59,0.31,4.98,0.93
					c0.95,0.44,1.8,1.04,2.51,1.8c0.71,0.75,1.28,1.63,1.67,2.62c0.4,0.99,0.6,2.03,0.6,3.09c0,1.65-0.42,3.17-1.24,4.52
					c-0.76,1.26-1.57,2.27-2.38,3c-0.74,0.66-1.97,1.7-3.7,3.12c-0.96,0.79-1.75,1.47-2.34,2.04h6.05c1.18,0,2.13,0.28,2.83,0.82
					c0.79,0.61,1.2,1.48,1.2,2.51c0,0.89-0.32,1.69-0.91,2.32c-0.62,0.65-1.51,0.98-2.63,0.98H813.12z"/>
				<path class="st1" d="M839.61,93.6c-1.99,0-3.81-0.57-5.4-1.71c-1.57-1.12-2.77-2.68-3.55-4.64c-0.4-1.05-0.68-2.2-0.86-3.43
					c-0.17-1.19-0.26-2.5-0.26-3.89c0-1.76,0.09-3.38,0.28-4.81c0.19-1.47,0.51-2.76,0.93-3.85c0.78-1.89,1.92-3.35,3.41-4.35
					c1.49-1,3.28-1.51,5.3-1.51c1.33,0,2.56,0.22,3.67,0.66c1.12,0.45,2.11,1.11,2.96,1.97c0.83,0.84,1.53,1.88,2.09,3.09
					c0.95,2.07,1.42,4.85,1.42,8.51c0,1.93-0.12,3.62-0.36,5.02c-0.25,1.48-0.73,2.85-1.41,4.07c-0.89,1.54-2.05,2.75-3.47,3.59
					C842.94,93.17,841.34,93.6,839.61,93.6z M839.54,71.5c-0.95,0-1.51,0.43-1.9,1.43c-0.52,1.35-0.79,3.54-0.79,6.51
					c0,2.04,0.12,3.73,0.35,5.01c0.21,1.13,0.53,1.96,0.97,2.48c0.34,0.4,0.78,0.58,1.4,0.58c0.83,0,1.21-0.32,1.44-0.61
					c0.45-0.55,0.77-1.4,0.97-2.52c0.23-1.28,0.34-2.99,0.34-5.09c0-1.99-0.12-3.62-0.35-4.86c-0.2-1.09-0.53-1.89-0.96-2.38
					C840.79,71.82,840.41,71.5,839.54,71.5z"/>
			</g>
		</g>
	</g>
</g>
</svg>
