<?xml version="1.0" encoding="utf-8"?>
<!-- Generator: Adobe Illustrator 25.0.1, SVG Export Plug-In . SVG Version: 6.00 Build 0)  -->
<svg version="1.1" id="Layer_1" xmlns="http://www.w3.org/2000/svg" xmlns:xlink="http://www.w3.org/1999/xlink" x="0px" y="0px"
	 viewBox="0 0 1363.9 373.5" style="enable-background:new 0 0 1363.9 373.5;" xml:space="preserve">
<style type="text/css">
	.st0{fill:none;stroke:#6E6F71;stroke-width:3.1136;stroke-miterlimit:10;}
	.st1{fill:#919191;}
	.st2{fill:#F48120;}
	.st3{fill:#4D4D4D;}
	.st4{fill:#F48022;}
	.st5{fill:#636467;}
</style>
<line class="st0" x1="711.4" y1="22.5" x2="711.4" y2="350.9"/>
<g>
	<g>
		<path class="st1" d="M646.7,336.6H371.9c-1.1,0-2.1-0.5-2.8-1.4c-0.6-0.9-0.9-2-0.6-3l11.6-49.6c0.4-1.6,1.9-2.8,3.5-2.8H630
			c1.5,0,2.9,1,3.4,2.4l17,49.6c0.4,1.1,0.3,2.3-0.5,3.3C649,336,647.9,336.6,646.7,336.6z M376.4,329.4h265.3L627.2,287h-241
			L376.4,329.4z"/>
	</g>
	<g>
		<path class="st1" d="M466.9,287c-2,0-3.5-1.6-3.5-3.6v-64.8l-50.1,38.5v26.2c0,2-1.6,3.6-3.5,3.6c-2,0-3.5-1.6-3.5-3.6v-27.9
			c0-1.1,0.5-2.1,1.4-2.9l57.3-44c1.1-0.9,2.5-1,3.8-0.4c1.3,0.6,2,1.9,2,3.3v72.1C470.4,285.4,468.8,287,466.9,287z"/>
	</g>
	<g>
		<path class="st2" d="M600.3,155.3c-0.6-0.8-1.6-1.3-2.6-1.3h-10.2c-1.4,0-2.6,0.8-3.1,2c-0.5,1.1-0.3,2.5,0.5,3.5l-75.1,57.3
			l-35.1-33.3c-1-1-2.3-1.5-3.8-1.5c-1.1,0-2.4,0.4-3.3,1.1L415,223.7c-2.4,1.8-2.8,5.2-1,7.6c1,1.4,2.5,2.1,4.3,2.1
			c1.3,0,2.3-0.4,3.3-1.1l48.8-37.8l35.1,33.3c1,1,2.3,1.5,3.6,1.5c1.1,0,2.3-0.4,3.3-1.1l79.7-60.8l1.4,1.5
			c0.6,0.8,1.5,1.1,2.5,1.1c1.6,0,3.1-1.1,3.4-2.9l1.5-9.2C601.2,157,600.9,156,600.3,155.3z"/>
	</g>
	<g>
		<path class="st1" d="M532,287h-49.2c-2,0-3.5-1.6-3.5-3.6v-54.6c0-1.4,0.9-2.8,2.1-3.3c1.3-0.5,2.9-0.3,3.9,0.8l24.3,23.2
			l20.3-15.4c1.1-0.9,2.5-1,3.8-0.4s2,1.9,2,3.3v46.6C535.6,285.4,534,287,532,287z M486.3,279.8h42.2v-35.7l-17,12.8
			c-1.4,1-3.4,1-4.7-0.3l-20.5-19.5V279.8L486.3,279.8z"/>
	</g>
	<g>
		<path class="st1" d="M604.3,287h-57.3c-2,0-3.5-1.6-3.5-3.6v-58c0-1.1,0.5-2.1,1.4-2.9l57.3-43.3c1.1-0.8,2.5-1,3.8-0.4
			s2,1.9,2,3.3v101.3C608,285.4,606.3,287,604.3,287z M550.7,279.8h50.1v-90.5l-50.1,37.9V279.8z"/>
	</g>
	<g>
		<path class="st1" d="M409.6,215.2c-0.5,0-1.1-0.1-1.6-0.4c-1.3-0.6-2-1.9-2-3.3v-168c0-2,1.6-3.5,3.5-3.5h194.7
			c2,0,3.5,1.6,3.5,3.5v85.1c0,1.1-0.5,2.1-1.4,2.9l-95,72.7c-1.4,1-3.4,1-4.7-0.3l-36.9-34.4l-57.9,44.8
			C411.1,214.9,410.4,215.2,409.6,215.2z M413.2,47.2v157.2l54.6-42.2c1.4-1.1,3.4-1,4.7,0.3l37.1,34.4l91.2-69.8V47.2H413.2z"/>
	</g>
	<g>
		<path class="st2" d="M460.5,105.7c-1.5,0-2.8-0.5-3.6-1.4c-0.9-0.9-1.4-2-1.4-3.3c0-0.8,0.3-1.6,0.8-2.8c0.5-1,1-1.8,1.5-2.4
			c1.9-2,3.6-3.8,5.3-5.2c1.6-1.5,2.8-2.4,3.5-2.9c1-0.8,1.9-1.5,2.6-2.3c0.6-0.8,1.1-1.4,1.5-2.1c0.3-0.6,0.5-1.3,0.5-1.9
			s-0.1-1.1-0.4-1.6c-0.3-0.5-0.6-0.9-1.1-1.1c-0.5-0.3-1-0.4-1.6-0.4c-1.3,0-2.3,0.5-3,1.8c-0.1,0.3-0.3,0.6-0.5,1.4
			c-0.4,1.1-0.9,2-1.4,2.8c-0.5,0.6-1.5,1.4-3.1,1.4c-1.1,0-2.1-0.4-2.9-1.1c-0.5-0.5-1.1-1.5-1.1-3.1c0-1.1,0.3-2.4,0.8-3.6
			c0.5-1.3,1.3-2.4,2.4-3.5c1-1,2.4-1.9,3.9-2.5c1.5-0.6,3.4-0.9,5.4-0.9c2.4,0,4.5,0.4,6.3,1.1c1.3,0.5,2.3,1.3,3.1,2.3
			c0.9,1,1.6,2,2.1,3.3c0.5,1.3,0.8,2.5,0.8,3.9c0,2.1-0.5,4-1.5,5.7s-2,2.9-3,3.8c-0.9,0.9-2.5,2.1-4.7,3.9c-1.3,1-2.3,1.9-2.9,2.5
			h7.6c1.5,0,2.6,0.4,3.5,1c1,0.8,1.5,1.9,1.5,3.1c0,1.1-0.4,2.1-1.1,2.9c-0.8,0.9-1.9,1.3-3.3,1.3L460.5,105.7L460.5,105.7z"/>
		<path class="st2" d="M493.8,106.2c-2.5,0-4.8-0.8-6.8-2.1c-2-1.4-3.5-3.4-4.4-5.8c-0.5-1.4-0.9-2.8-1.1-4.3
			c-0.3-1.5-0.4-3.1-0.4-4.9c0-2.3,0.1-4.3,0.4-6c0.3-1.9,0.6-3.5,1.1-4.8c1-2.4,2.4-4.2,4.3-5.4c1.9-1.3,4.2-1.9,6.7-1.9
			c1.6,0,3.3,0.3,4.7,0.9c1.4,0.5,2.6,1.4,3.8,2.5c1,1,1.9,2.4,2.6,3.9c1.3,2.6,1.8,6,1.8,10.7c0,2.4-0.1,4.5-0.5,6.3
			c-0.3,1.9-0.9,3.5-1.8,5.2c-1.1,1.9-2.5,3.5-4.4,4.5C498,105.7,496,106.2,493.8,106.2z M493.7,78.4c-1.3,0-1.9,0.5-2.4,1.8
			c-0.6,1.6-1,4.4-1,8.2c0,2.5,0.1,4.7,0.4,6.3c0.3,1.4,0.6,2.5,1.3,3.1c0.4,0.5,1,0.8,1.8,0.8c1,0,1.5-0.4,1.8-0.8
			c0.6-0.8,1-1.8,1.3-3.1c0.3-1.6,0.4-3.8,0.4-6.4c0-2.5-0.1-4.5-0.4-6.2c-0.3-1.4-0.6-2.4-1.3-3C495.3,78.7,494.8,78.4,493.7,78.4z
			"/>
		<path class="st2" d="M512.6,105.7c-1.5,0-2.8-0.5-3.6-1.4c-0.9-0.9-1.4-2-1.4-3.3c0-0.8,0.3-1.6,0.8-2.8c0.5-1,1-1.8,1.5-2.4
			c1.9-2,3.6-3.8,5.3-5.2c1.6-1.5,2.8-2.4,3.5-2.9c1-0.8,1.9-1.5,2.6-2.3c0.6-0.8,1.1-1.4,1.5-2.1c0.3-0.6,0.5-1.3,0.5-1.9
			s-0.1-1.1-0.4-1.6s-0.6-0.9-1.1-1.1c-0.5-0.3-1-0.4-1.6-0.4c-1.3,0-2.3,0.5-3,1.8c-0.1,0.3-0.3,0.6-0.5,1.4
			c-0.4,1.1-0.9,2-1.4,2.8c-0.5,0.6-1.5,1.4-3.1,1.4c-1.1,0-2.1-0.4-2.9-1.1c-0.5-0.5-1.1-1.5-1.1-3.1c0-1.1,0.3-2.4,0.8-3.6
			c0.5-1.3,1.3-2.4,2.4-3.5c1-1,2.4-1.9,3.9-2.5s3.4-0.9,5.4-0.9c2.4,0,4.5,0.4,6.3,1.1c1.3,0.5,2.3,1.3,3.1,2.3s1.6,2,2.1,3.3
			c0.5,1.3,0.8,2.5,0.8,3.9c0,2.1-0.5,4-1.5,5.7s-2,2.9-3,3.8c-0.9,0.9-2.5,2.1-4.7,3.9c-1.3,1-2.3,1.9-2.9,2.5h7.6
			c1.5,0,2.6,0.4,3.5,1c1,0.8,1.5,1.9,1.5,3.1c0,1.1-0.4,2.1-1.1,2.9c-0.8,0.9-1.9,1.3-3.3,1.3L512.6,105.7L512.6,105.7z"/>
		<path class="st2" d="M545.9,106.2c-2.5,0-4.8-0.8-6.8-2.1c-2-1.4-3.5-3.4-4.4-5.8c-0.5-1.4-0.9-2.8-1.1-4.3
			c-0.3-1.5-0.4-3.1-0.4-4.9c0-2.3,0.1-4.3,0.4-6c0.3-1.9,0.6-3.5,1.1-4.8c1-2.4,2.4-4.2,4.3-5.4c1.9-1.3,4.2-1.9,6.7-1.9
			c1.6,0,3.3,0.3,4.7,0.9c1.4,0.5,2.6,1.4,3.8,2.5c1,1,1.9,2.4,2.6,3.9c1.3,2.6,1.8,6,1.8,10.7c0,2.4-0.1,4.5-0.5,6.3
			c-0.3,1.9-0.9,3.5-1.8,5.2c-1.1,1.9-2.5,3.5-4.4,4.5C550.2,105.7,548.2,106.2,545.9,106.2z M545.9,78.4c-1.3,0-1.9,0.5-2.4,1.8
			c-0.6,1.6-1,4.4-1,8.2c0,2.5,0.1,4.7,0.4,6.3c0.3,1.4,0.6,2.5,1.3,3.1c0.4,0.5,1,0.8,1.8,0.8c1,0,1.5-0.4,1.8-0.8
			c0.6-0.8,1-1.8,1.3-3.1c0.3-1.6,0.4-3.8,0.4-6.4c0-2.5-0.1-4.5-0.4-6.2c-0.3-1.4-0.6-2.4-1.3-3C547.4,78.7,546.9,78.4,545.9,78.4z
			"/>
	</g>
</g>
<g>
	<path class="st3" d="M128.6,84.9c0,5.9-1.3,10.4-3.6,14c-3.1,4.4-7.9,6.7-14.3,6.7c-6.4,0-11.2-2.3-14.3-6.7
		c-2.5-3.5-3.9-8.1-3.9-14c0-5.7,1.3-10.4,3.9-14c3.1-4.3,7.9-6.4,14.3-6.4c6.4,0,11.2,2.3,14.3,6.4
		C127.4,74.5,128.6,79.2,128.6,84.9z M109,52.4c0,2.5-2.3,4.5-4.8,4.5c-2.5,0-4.5-2.3-4.5-4.5c0-2.5,2-4.5,4.5-4.5
		C107,47.8,109,49.8,109,52.4z M120.5,84.9c0-8.8-3.3-13.2-9.9-13.2c-6.4,0-9.7,4.4-9.7,13.2s3.3,13.5,9.7,13.5
		C117.1,98.4,120.5,93.7,120.5,84.9z M121.2,52.4c0,2.5-2.3,4.5-4.5,4.5c-2.5,0-4.5-2.3-4.5-4.5c0-2.5,2.3-4.5,4.5-4.5
		C118.9,47.9,121.2,49.8,121.2,52.4z"/>
	<path class="st3" d="M176.1,105.4h-12.7c-1.1,10.4-8.4,17.2-20,17.2c-3.9,0-6.9-0.8-9.6-2.4l-4-8.4c4,2.3,8.4,3.5,13.6,3.5
		c7.2,0,11.6-4.5,11.6-12.1V67.4l8.4-2.5v32.8h12.7L176.1,105.4L176.1,105.4z M163.2,52.4c0,2.5-2,4.5-4.5,4.5
		c-2.5,0-4.5-2.3-4.5-4.5c0-2.5,2.3-4.8,4.5-4.8C161,47.7,163.2,49.8,163.2,52.4z"/>
	<path class="st3" d="M190.5,105.4h-16.5v-7.6h16.5V105.4z"/>
	<path class="st3" d="M204.9,105.4h-16.5v-7.6h16.5V105.4z"/>
	<path class="st3" d="M219.4,105.4h-16.5v-7.6h16.5V105.4z"/>
	<path class="st3" d="M240.6,43.8l-3.9,3.9c-1.3-1.6-2.8-2.5-4.5-2.5c-3.5,0-5.2,2-5.2,6v2.5h12.8v5.2h-25.3l4.3-5.2h2.8v-1.9
		c0-6.8,4-12,11.2-12C235.7,40,238.2,41.2,240.6,43.8z M236.6,89.6c0,4.5-1.5,8.4-4.5,11.3c-3,2.9-6.9,4.5-12.1,4.5h-2.5v-7.3h2
		c5.9,0,8.8-3.1,8.8-9.2V67.4l8.4-2.5v24.7H236.6z"/>
	<path class="st3" d="M265.7,105.4h-9.6c-7.6,0-11.7-4.5-11.7-11.6V50.4l8.4-2.8v45.9c0,2.9,1.5,4.3,4.4,4.3h8.4L265.7,105.4
		L265.7,105.4z"/>
	<path class="st3" d="M280,105.4h-16.5v-7.6H280V105.4z"/>
	<path class="st3" d="M294.2,105.4h-16.5v-7.6h16.5V105.4z"/>
	<path class="st3" d="M339.8,105.4h-47.6v-7.3h38.9v-3.3c0-6.8-0.5-11.7-1.9-14.7c-2-4.9-5.9-7.6-11.7-7.6c-4.9,0-9.6,2.4-13.7,6.9
		l-6-5.5c6-5.9,12.5-8.8,19.9-8.8c8.9,0,15.2,3.3,18.8,9.9c2.4,4.5,3.5,11.2,3.5,20v10.3H339.8z M322,118c0,2.5-2.3,4.5-4.5,4.5
		c-2.4,0-4.5-2.3-4.5-4.5c0-2.4,2-4.5,4.5-4.5C320,113.3,322,115.4,322,118z"/>
	<path class="st3" d="M176.8,192.4c0,5.7-1.3,10.1-3.6,13.6c-2.9,4.3-7.3,6.4-13.6,6.4c-6,0-10.7-2.3-13.6-6.4
		c-2.4-3.5-3.6-7.9-3.6-13.6c0-5.2,0.9-9.2,2.5-12.1h-4.8c-4.8,0-8.1,0.5-9.7,1.9c-1.9,1.3-2.9,4-2.9,8.3v37.1l-8.4,2.5v-39.6
		c0-6.7,1.9-11.3,5.3-14.3c3.1-2.4,7.7-3.6,14.3-3.6h21.1c6,0,10.7,2.3,13.6,6.4C175.7,182.2,176.8,186.8,176.8,192.4z M168.5,192.4
		c0-8.3-2.9-12.5-8.8-12.5c-5.9,0-8.8,4-8.8,12.5c0,8.3,2.9,12.5,8.8,12.5C165.6,204.8,168.5,200.6,168.5,192.4z"/>
	<path class="st3" d="M205.8,212.9h-9.6c-7.6,0-11.7-4.5-11.7-11.6v-43.5l8.4-2.8v45.9c0,2.9,1.5,4.3,4.4,4.3h8.4L205.8,212.9
		L205.8,212.9z"/>
	<path class="st3" d="M220.1,212.9h-16.5v-7.6h16.5V212.9z"/>
	<path class="st3" d="M234.6,212.9h-16.5v-7.6h16.5V212.9z"/>
	<path class="st3" d="M248.9,212.9h-16.5v-7.6h16.5V212.9z"/>
	<path class="st3" d="M289,198.8c0,5.3-1.6,8.9-4.8,11.2c-2.5,1.9-6.4,2.8-11.7,2.8h-25.5v-7.6h24.4c3.1,0,5.3-0.1,6.3-0.5
		c1.9-0.8,2.9-2.5,2.9-5.3h-12.1c-5.7,0-9.7-1.3-12-3.9c-1.9-2.3-2.9-5.7-2.9-10.4c0-8.7,6.7-14.3,17.5-14.3c6,0,10.7,1.5,13.7,4.5
		c2.8,2.5,4.3,5.9,4.3,9.7L289,198.8L289,198.8z M268.9,159.8c0,2.5-2.3,4.5-4.8,4.5s-4.5-2.3-4.5-4.5c0-2.5,2-4.5,4.5-4.5
		C266.9,155.3,268.9,157.3,268.9,159.8z M280.4,185.3c0-4.8-3.1-7.2-9.6-7.2c-6,0-8.9,2.4-8.9,7.2c0,3.1,0.4,4.9,1.3,5.9
		c0.9,0.8,3.1,1.1,6.8,1.1h10.4L280.4,185.3L280.4,185.3z M281,159.8c0,2.5-2.3,4.5-4.5,4.5c-2.5,0-4.5-2.3-4.5-4.5
		c0-2.5,2.3-4.5,4.5-4.5C278.9,155.3,281,157.3,281,159.8z"/>
	<path class="st3" d="M323.7,210.1c0,6-1.9,10.8-5.5,14.3c-3.6,3.6-8.4,5.5-14.7,5.5c-3.9,0-6.9-0.8-9.6-2.4l-4-8.4
		c4,2.3,8.4,3.5,13.6,3.5c7.2,0,11.6-4.5,11.6-12.1v-35.5l8.4-2.5v37.6h0.3V210.1z"/>
	<path class="st3" d="M342.8,151.7h-14.7l1.9-3.1h2.5v-1.9c0-4,1.9-6.3,5.7-6.3c1.5,0,2.9,0.5,4,1.9l-2,2.5
		c-0.5-0.9-1.5-1.3-2.4-1.3c-1.5,0-2.3,1.1-2.3,3.1v1.9h7.2L342.8,151.7L342.8,151.7z M339.8,212.9h-8.4v-55.1l8.4-2.8V212.9z"/>
	<path class="st3" d="M75,320.4h-5.9c-6.9,0-11.3-2-13.5-6.3c-2,4.3-6.4,6.3-13.2,6.3c-11.3,0-17.1-6.8-17.1-20.5
		c0-13.2,5.7-19.9,17.1-19.9h18.1v23.9c0,6,2.9,9.2,8.8,9.2h5.3v7.3L75,320.4L75,320.4z M52.2,286.8h-9.2c-3.5,0-6,1.1-7.3,3.5
		c-1.1,1.9-1.9,5.2-1.9,9.6c0,4.4,0.5,7.6,1.9,9.6c1.3,2.4,3.9,3.5,7.3,3.5c3.5,0,6-1.1,7.3-3.5c1.1-2,1.9-5.2,1.9-9.6V286.8z
		 M44.6,267.3c0,2.5-2.3,4.5-4.8,4.5c-2.5,0-4.5-2.3-4.5-4.5c0-2.3,2.3-4.5,4.5-4.5C42.4,262.6,44.6,264.7,44.6,267.3z M56.5,267.3
		c0,2.5-2.3,4.5-4.5,4.5c-2.4,0-4.5-2.3-4.5-4.5c0-2.3,2-4.5,4.5-4.5C54.5,262.6,56.5,264.7,56.5,267.3z"/>
	<path class="st3" d="M96.5,304.4c0,4.5-1.5,8.4-4.5,11.3c-3.1,2.9-7.2,4.4-12.3,4.4h-6.9v-7.3h6.4c5.9,0,8.8-3.1,8.8-9.2v-21.5
		l8.4-2.5v24.8H96.5z M82.6,332.8c0,2.5-2.3,4.5-4.5,4.5c-2.5,0-4.5-2.3-4.5-4.5c0-2.4,2.3-4.5,4.5-4.5
		C80.4,328.2,82.6,330.2,82.6,332.8z M94.7,332.8c0,2.5-2,4.5-4.5,4.5c-2.5,0-4.8-2.3-4.8-4.5c0-2.4,2.3-4.5,4.8-4.5
		C92.6,328.3,94.7,330.2,94.7,332.8z"/>
	<path class="st3" d="M143.9,320.4h-12.7c-1.1,10.4-8.4,17.2-20,17.2c-3.9,0-6.9-0.8-9.6-2.4l-4-8.4c4,2.3,8.4,3.5,13.6,3.5
		c7.2,0,11.6-4.5,11.6-12.1v-35.5l8.4-2.5v32.8h12.7C143.9,312.9,143.9,320.4,143.9,320.4z"/>
	<path class="st3" d="M165.6,304.4c0,4.5-1.5,8.4-4.5,11.3c-3.1,2.9-7.2,4.4-12.3,4.4h-7v-7.3h6.4c5.9,0,8.8-3.1,8.8-9.2v-21.5
		l8.4-2.5v24.8H165.6z M151.7,332.8c0,2.5-2.3,4.5-4.5,4.5c-2.5,0-4.5-2.3-4.5-4.5c0-2.4,2.3-4.5,4.5-4.5
		C149.4,328.2,151.7,330.2,151.7,332.8z M163.7,332.8c0,2.5-2,4.5-4.5,4.5c-2.5,0-4.8-2.3-4.8-4.5c0-2.4,2.3-4.5,4.8-4.5
		C161.6,328.2,163.7,330.2,163.7,332.8z"/>
	<path class="st3" d="M221,320.4h-47.7l5.2-7.3h22v-17.1c0-5.9-3.1-8.8-9.3-8.8c-5.2,0-9.2,2.5-12.1,7.7v-9.7
		c4-3.5,8.1-5.3,12.1-5.3c5.3,0,9.6,1.5,12.8,4.3s4.9,6.4,4.9,11.1v17.5H221L221,320.4L221,320.4z"/>
	<path class="st3" d="M268.6,320.4h-19.5c-1.6,0-3.5-0.1-5.3-0.5c-1.6,0.4-3.5,0.5-5.3,0.5h-19.9v-7.3h13.2c-3.6-4-5.5-8.3-5.5-12.7
		c-0.1-5.7,0.9-10.3,3.5-14c3.1-4.3,7.7-6.4,14-6.4s10.8,2.3,14,6.4c2.5,3.5,3.6,8.3,3.6,14c-0.1,4.4-2,8.7-5.7,12.7h12.8V320.4z
		 M242.1,267.3c0,2.5-2.3,4.5-4.8,4.5c-2.5,0-4.5-2.3-4.5-4.5c0-2.3,2.3-4.5,4.5-4.5C240.1,262.6,242.1,264.7,242.1,267.3z
		 M243.8,287.4c-5.9,0-9.3,4.9-9.3,11.1c0,3.1,0.8,6,2.3,8.7c1.9,2.9,4,4.9,7.2,6c3.1-0.9,5.3-3.1,7.2-6c1.5-2.5,2.4-5.5,2.4-8.7
		C253.2,292.4,249.8,287.4,243.8,287.4z M254.2,267.3c0,2.5-2.3,4.5-4.5,4.5c-2.4,0-4.5-2.3-4.5-4.5c0-2.3,2.3-4.5,4.5-4.5
		C252.1,262.6,254.2,264.7,254.2,267.3z"/>
	<path class="st3" d="M303.3,320.4H298c-5.3,0-9.3-1.6-12.5-4.8c-3.1,3.1-7.2,4.8-12.7,4.8h-6.4v-7.3h5.9c6,0,8.9-3.1,8.9-9.2v-21.5
		l8.4-2.5v24.3c0,5.9,2.9,8.8,8.8,8.8h4.8V320.4L303.3,320.4z M283.7,267.3c0,2.5-2.3,4.5-4.5,4.5c-2.5,0-4.5-2.3-4.5-4.5
		c0-2.3,2-4.5,4.5-4.5C281.4,262.6,283.7,264.7,283.7,267.3z M295.6,267.3c0,2.5-2.3,4.5-4.5,4.5c-2.4,0-4.5-2.3-4.5-4.5
		c0-2.3,2.3-4.5,4.5-4.5C293.6,262.6,295.6,264.7,295.6,267.3z"/>
	<path class="st3" d="M323.7,304.4c0,4.5-1.5,8.3-4.5,11.3c-3.1,2.9-7.2,4.4-12.3,4.4h-5.7v-7.6h5.3c5.9,0,8.8-3.1,8.8-9.2v-38.1
		l8.4-2.5L323.7,304.4L323.7,304.4z"/>
	<path class="st3" d="M339.8,320.4h-8.4v-55.1l8.4-2.8V320.4z"/>
</g>
<g>
	<path class="st4" d="M1211.1,70.4v30.4h30.4V70.4H1211.1z M1322.3,82.8h-5.3v9.4h30.8v-9.4h-11.5c-4.3,0-6.3-1.8-6.3-5.4
		c0-4.4,2-6.7,5.8-6.7h8v-9.1h-7c-9.2,0-16.1,6.4-16.1,15.9C1321,79.4,1321.4,81,1322.3,82.8z M901.6,216.4v-62.7
		c0-23,27.3-21,27.3-21V193c0,0.6,0,1.3,0,1.8C927.7,222.4,901.6,216.4,901.6,216.4z M833.9,245.6h79.5c32.8,0,43.5-30.7,43.5-38.5
		c0-8,1-105.2,1-105.2l-41.9,0.3c-32.3,1.3-42.8,32.1-42.8,41.6c0,9.4,0,72.1,0,72.1h-45.3c-40.4,0-39.1,40.9-39.1,40.9V299
		l29.1,9.9v-41.6C817.7,243.4,833.9,245.6,833.9,245.6z M1170.2,70.4v30.4h30.4V70.4H1170.2z M1318.7,240.6h30.4V102.7l-30.4,13.1
		V240.6z M1182.7,167.9c0,0-2.4-16.8,17.3-16.8l14.4,0.6v54C1214.3,205.9,1182.7,198.4,1182.7,167.9z M979.7,241.2h262.5V121.9h-54
		c-35.4,4.3-40.4,41.1-34.8,63.4c3,11.5,11.2,23,11.2,23h-154.5c0,0,0-103.6,0-105.6l-30.4,13.1L979.7,241.2L979.7,241.2z
		 M1267.1,139.4v125.5c0,15.5-26,15.5-26,15.5v29.1c0,0,56.4-2.6,56.4-46.6c0,0,0-134.7,0-136.6L1267.1,139.4z"/>
	<path class="st5" d="M998.9,286.1c0-1.4-1.1-2.6-2.4-2.6H981c-1.4,0-2.4,1.1-2.4,2.6v4.3c0,1.4,1.1,2.6,2.4,2.6h15.5
		c1.4,0,2.4-1.1,2.4-2.6V286.1z M1005.7,303c-0.1,2.8-2.7,8.8-8.8,8.8c0,0-12.9,0-18.8,0c-2,0-3-0.9-3-2c0-0.9,0-1.8,0-2.8
		c0-1.8,1.3-2.1,2.7-2.1c6.1,0,17.3,0,18.6,0c1.6,0,2.6-0.7,2.6-1.7c0-1.1,0-4.3,0-4.3s-17.8,0-19.6,0c-4,0-7.7-3.6-7.7-8
		c0-2,0-6.4,0-6.4c0-4.4,3.7-7.1,7.7-7.1h21.9c2.4,0,4.5,2,4.5,4.5C1005.7,282.1,1005.9,300.7,1005.7,303z M1123.4,299
		c0-1.4-1.1-2.6-2.4-2.6h-15.6c-1.4,0-2.4,1.1-2.4,2.6v4.3c0,1.4,1.1,2.6,2.4,2.6h15.6c1.4,0,2.4-1.1,2.4-2.6V299z M1130.3,307.2
		c0,2.4-2,4.5-4.5,4.5h-21.9c-4,0-7.7-2.7-7.7-7.1c0,0,0-4.4,0-6.4c0-4.4,3.7-8,7.7-8c1.8,0,19.6,0,19.6,0s0-3.3,0-4.3
		c0-1.1-1.1-1.7-2.6-1.7c-1.1,0-12.5,0-18.6,0c-1.6,0-2.7-0.3-2.7-2.1c0-0.9,0-1.8,0-2.8c0-1.1,1-2,3-2c5.8,0,18.8,0,18.8,0
		c6.1,0,8.5,6,8.8,8.8C1130.4,288.6,1130.3,307.2,1130.3,307.2z M1061.2,299c0-1.4-1.1-2.6-2.4-2.6h-15.6c-1.4,0-2.4,1.1-2.4,2.6
		v4.3c0,1.4,1.1,2.6,2.4,2.6h15.6c1.4,0,2.4-1.1,2.4-2.6V299z M1068,307.2c0,2.4-2,4.5-4.5,4.5h-21.9c-4,0-7.7-2.7-7.7-7.1
		c0,0,0-4.4,0-6.4c0-4.4,3.7-8,7.7-8c1.8,0,19.6,0,19.6,0s0-3.3,0-4.3c0-1.1-1.1-1.7-2.6-1.7c-1.1,0-12.5,0-18.6,0
		c-1.6,0-2.7-0.3-2.7-2.1c0-0.9,0-1.8,0-2.8c0-1.1,1-2,3-2c5.8,0,18.8,0,18.8,0c6.1,0,8.5,6,8.8,8.8
		C1068.1,288.6,1068,307.2,1068,307.2z M878.2,299c0-1.4-1.1-2.6-2.4-2.6h-15.6c-1.4,0-2.4,1.1-2.4,2.6v4.3c0,1.4,1.1,2.6,2.4,2.6
		h15.6c1.4,0,2.4-1.1,2.4-2.6V299z M885.1,307.2c0,2.4-2,4.5-4.5,4.5h-21.9c-4,0-7.7-2.7-7.7-7.1c0,0,0-4.4,0-6.4c0-4.4,3.7-8,7.7-8
		c1.8,0,19.6,0,19.6,0s0-3.3,0-4.3c0-1.1-1-1.7-2.6-1.7c-1.1,0-12.5,0-18.6,0c-1.6,0-2.7-0.3-2.7-2.1c0-0.9,0-1.8,0-2.8
		c0-1.1,1-2,3-2c5.8,0,18.8,0,18.8,0c6.1,0,8.5,6,8.8,8.8C885.2,288.6,885.1,307.2,885.1,307.2z M1212.3,308.9
		c0,1.6-0.3,2.7-2.1,2.7c-0.9,0-1.8,0-2.8,0c-1.1,0-2-1.1-2-3.1c0-1.7,0-3.6,0-5.4V303c0,0,0-16.1,0-17.1c0-0.9-0.4-1.7-1.6-1.7
		c-5.7,0-13.5,0-14.5,0c-1.1,0-1.7,0.9-1.7,1.7c0,1.1,0,17.1,0,17.1v0.1c0,1.8,0,3.7,0,5.4c0,2-0.9,3.1-2,3.1c-0.9,0-1.8,0-2.8,0
		c-1.8,0-2.1-1.3-2.1-2.7c0-6.1,0-13.4,0-14.5l0,0c0-3.8,0-7.4,0-8.4c0-1.1-0.4-1.7-1.8-1.7c-6.1,0-13.1,0-14.2,0
		c-1.3,0-1.7,0.7-1.7,1.7c0,1.1,0,17.1,0,17.1v0.1c0,1.8,0,3.7,0,5.4c0,2-0.9,3.1-2,3.1c-0.9,0-1.8,0-2.8,0c-1.8,0-2.1-1.3-2.1-2.7
		c0-6.1,0-13.4,0-14.5l0,0c0-3.8,0-7.2,0.1-8.1c0.3-2.8,2.7-8.8,8.8-8.8c0,0,16.5,0,24.2,0c0.3,0,0.4,0,0.6,0c0,0,0.7,0,1.7,0
		c2.7,0,8.1,0,12.2,0c0.1,0,0.4,0,0.6,0c0.9,0,1.4,0.1,2,0.4c4.3,1.4,6.1,6,6.3,8.4c0,0.9,0.1,4.3,0.1,8.1l0,0
		C1212.3,295.6,1212.3,302.8,1212.3,308.9z M939.9,284.4c-6.1,0-13.1,0-14.2,0c-1.6,0-2.6,0.7-2.6,1.7c0,1.1,0,17.1,0,17.1v0.1
		c0,1.8,0,3.7,0,5.4c0,2-0.9,3.1-2,3.1c-0.9,0-1.8,0-2.8,0c-1.8,0-2.1-1.3-2.1-2.7c0-6.1,0-13.4,0-14.5l0,0c0-3.8,0-7.2,0.1-8.1
		c0.1-2.8,2.7-8.8,8.8-8.8c0,0,8.7,0,14.5,0c2,0,3,0.9,3,2c0,0.9,0,1.8,0,2.8C942.6,284.2,941.4,284.4,939.9,284.4z"/>
</g>
</svg>
